<svg xmlns="http://www.w3.org/2000/svg" width="134.695" height="35.002" viewBox="0 0 134.695 35.002">
    <g id="Group_40" data-name="Group 40" transform="translate(-3863.027 -1245.999)">
        <path id="Path_3" data-name="Path 3" d="M-52.013,605.184c0,7.455-5.5,15.959-13.37,17.641v7.592h-4.2v-35h8.5c5.39,0,8.857,3.536,9.031,9.276A2.09,2.09,0,0,1-52.013,605.184Zm-4.2-.036a1.019,1.019,0,0,0-.033-.314c-.072-2.378-.948-5.214-4.833-5.214h-4.3v18.864C-59.644,616.734-56.213,609.98-56.213,605.149Z" transform="translate(4027.616 650.583)" fill="#1a2d3f"/>
        <path id="Path_4" data-name="Path 4" d="M-24.588,605.184c0,7.455-5.5,15.959-13.369,17.641v7.592h-4.2v-35h8.5c5.391,0,8.857,3.536,9.031,9.276A2.136,2.136,0,0,1-24.588,605.184Zm-4.2-.036a1.019,1.019,0,0,0-.033-.314c-.071-2.378-.948-5.214-4.833-5.214h-4.3v18.864C-32.219,616.734-28.788,609.98-28.788,605.149Z" transform="translate(4022.31 650.583)" fill="#1a2d3f"/>
        <path id="Path_5" data-name="Path 5" d="M-81.334,626.219v4.2h-4.2v-2.8c0-2.133-2.169-5.881-5.286-7.874a6.367,6.367,0,0,0-3.324-1.123h-.281c-.033,2.661-.033,5.252-.033,7.6v4.2h-4.2v-4.2c0-9.522.173-16.414,1.083-21.386.422-2.345,1.717-9.417,7.595-9.417,5.846,0,7.141,7.072,7.562,9.417C-81.51,609.8-81.334,616.7-81.334,626.219Zm-4.239-7.562c-.173-9.307-.942-19.038-4.409-19.038-2.974,0-3.952,7-4.3,14.8h.14a10.33,10.33,0,0,1,5.567,1.786A15.348,15.348,0,0,1-85.573,618.657Z" transform="translate(4033.242 650.583)" fill="#1a2d3f"/>
        <path id="Path_23" data-name="Path 23" d="M10.287,559.3A8.14,8.14,0,0,1,9.4,563a7.893,7.893,0,0,1-7.316,4.478c-2.473,0-5.833-.921-7.713-5.336l2.835-4.483c.889,5.074,3,5.865,4.877,5.865a3.89,3.89,0,0,0,3.791-2.372,3.656,3.656,0,0,0,.461-1.847,3.845,3.845,0,0,0-1.384-2.966l-8.37-8.567a7.868,7.868,0,0,1-1.517-9.92,7.781,7.781,0,0,1,7.02-3.99c2.471,0,5.833.924,7.713,5.34l-2.835,4.483c-.892-5.074-3-5.865-4.877-5.865a3.8,3.8,0,0,0-3.623,2.042,3.8,3.8,0,0,0-.562,2.045,3.845,3.845,0,0,0,1.384,2.966l8.37,8.57A7.8,7.8,0,0,1,10.287,559.3Z" transform="translate(3903.42 713.523)" fill="#ff641f"/>
        <path id="Path_25" data-name="Path 25" d="M-13.55,466.949V482.92h4.61v3.95h-4.61v5.1H-6.3v3.95H-17.5V463H-6.3v3.953Z" transform="translate(3899.527 784.388)" fill="#ff641f"/>
        <path id="Path_27" data-name="Path 27" d="M-13.878,467.768h-4.511v28.974h-3.95V467.768h-4.543v-3.953h13.005Z" transform="translate(3889.91 783.569)" fill="#ff641f"/>
        <path id="Path_28" data-name="Path 28" d="M-13.878,467.768h-4.511v28.974h-3.95V467.768h-4.543v-3.953h13.005Z" transform="translate(3943.91 783.569)" fill="#ff641f"/>
    </g>
</svg>
